<svg width="30" height="30" viewBox="0 0 30 30" fill="none" xmlns="http://www.w3.org/2000/svg">
<path fill-rule="evenodd" clip-rule="evenodd" d="M20.145 6.87671H9.85544C8.21327 6.87671 6.87695 8.21295 6.87695 9.8552V20.1447C6.87695 21.7872 8.21327 23.1235 9.85544 23.1235H20.145C21.7875 23.1235 23.1238 21.7872 23.1238 20.1447V9.8552C23.1238 8.21303 21.7875 6.87671 20.145 6.87671ZM15 20.3484C12.0512 20.3484 9.65179 17.9489 9.65179 14.9998C9.65179 12.051 12.0512 9.65155 15 9.65155C17.9492 9.65155 20.3486 12.051 20.3486 14.9998C20.3486 17.9489 17.9492 20.3484 15 20.3484ZM20.5207 10.7575C19.8225 10.7575 19.2548 10.1898 19.2548 9.49207C19.2548 8.79424 19.8225 8.22654 20.5207 8.22654C21.2184 8.22654 21.7861 8.79424 21.7861 9.49207C21.7861 10.1899 21.2184 10.7575 20.5207 10.7575Z" fill="#9A8464"/>
<path fill-rule="evenodd" clip-rule="evenodd" d="M14.9997 11.9119C13.2974 11.9119 11.9111 13.2975 11.9111 14.9998C11.9111 16.7028 13.2974 18.0887 14.9997 18.0887C16.7027 18.0887 18.088 16.7028 18.088 14.9998C18.088 13.2975 16.7027 11.9119 14.9997 11.9119Z" fill="#9A8464"/>
<path fill-rule="evenodd" clip-rule="evenodd" d="M0 0V30H30V0H0ZM25.3833 20.1448C25.3833 23.0337 23.0337 25.3833 20.1448 25.3833H9.85525C6.96659 25.3833 4.6167 23.0337 4.6167 20.1448V9.85525C4.6167 6.96659 6.96659 4.6167 9.85525 4.6167H20.1448C23.0337 4.6167 25.3833 6.96659 25.3833 9.85525V20.1448Z" fill="#9A8464"/>
</svg>
